# xmcd
#
# Track frame offsets: 
#        187
#        17567
#        35825
#        54315
#        70325
#        90985
#        104850
#        119587
#        141710
#        155645
#        170712
#        195057
#        214150
#        237450
#        259425
#        273925
#        291745
#        313775
#        327675
#
# Disc length: 4538 seconds
#
# Revision: 7
# Processed by: cddbd v1.5.2PL0 Copyright (c) Steve Scherf et al.
# Submitted via: ExactAudioCopyFreeDBPlugin 1.0
#
DISCID=3911b813
DTITLE=ABBA - Gold - Greatest Hits
DYEAR=1999
DGENRE=Pop
TTITLE0=Dancing Queen
TTITLE1=Knowing Me, Knowing You
TTITLE2=Take A Chance On Me
TTITLE3=Mamma Mia
TTITLE4=Lay All Your Love On Me
TTITLE5=Ring Ring
TTITLE6=I Do, I Do, I Do, I Do, I Do
TTITLE7=The Winner Takes It All
TTITLE8=Money, Money, Money
TTITLE9=S.O.S.
TTITLE10=Chiquitita
TTITLE11=Fernando
TTITLE12=Voulez Vous
TTITLE13=Gimme! Gimme! Gimme! (A Man After Midnight)
TTITLE14=Does Your Mother Know
TTITLE15=One Of Us
TTITLE16=The Name Of The Game
TTITLE17=Rock Me
TTITLE18=Waterloo
EXTD=
EXTT0=
EXTT1=
EXTT2=
EXTT3=
EXTT4=
EXTT5=
EXTT6=
EXTT7=
EXTT8=
EXTT9=
EXTT10=
EXTT11=
EXTT12=
EXTT13=
EXTT14=
EXTT15=
EXTT16=
EXTT17=
EXTT18=
PLAYORDER=
